<svg xmlns="http://www.w3.org/2000/svg" width="778" height="1240"><path d="M305.5 1.361c-10.563 4.852-31.017 31.72-42.207 55.444-14.198 30.1-21.12 62.765-24.305 114.695-2.574 41.969 1.177 106.409 9.682 166.341l2.603 18.34-7.887 7.968c-10.016 10.119-25.452 22.149-51.386 40.048-56.444 38.955-73.071 51.847-96.338 74.696-35.343 34.707-58.311 72.283-69.884 114.329-2.094 7.608-2.273 10.261-2.218 32.778l.06 24.5 4.135 15.861c7.506 28.787 21.234 52.65 42.706 74.237 22.048 22.166 50.255 39.495 83.539 51.321 29.736 10.565 70.041 16.856 102 15.918l11.5-.337 1.155 33.5c.636 18.425 1.688 47 2.339 63.5 1.931 48.986 1.825 57.598-.828 67.433-3.209 11.897-7.879 21.371-14.821 30.067-15.434 19.334-42.354 31.617-66.845 30.5-16.997-.775-30.56-6.644-42.408-18.349-8.327-8.227-16.051-20.08-18.67-28.651-2.167-7.094-2.873-24.775-1.234-30.923 1.314-4.931 3.812-7.446 3.812-3.838 0 7.888 9.17 20.254 18.31 24.693 7.943 3.857 17.975 5.225 27.805 3.793 15.431-2.25 25.223-9.061 31.613-21.988 3.735-7.558 3.772-7.753 3.772-19.737 0-11.953-.046-12.198-3.718-19.627-6.465-13.081-17.867-22.088-31.563-24.931-8.019-1.666-22.342-.703-29.365 1.973-25.312 9.644-41.854 36.09-41.854 66.912 0 23.37 7.914 44.93 22.422 61.08 11.13 12.391 22.555 19.304 39.457 23.876 9.338 2.527 10.458 2.601 38.121 2.544 28.211-.058 45.366-.987 72.5-3.925 47.07-5.096 94.516-16.993 133.671-33.519 7.881-3.326 14.981-6.123 15.777-6.215.969-.112 1.7 1.261 2.209 4.148 2.141 12.14 12.593 18.157 25.707 14.797 25.597-6.557 50.368-36.183 57.564-68.847.41-1.863 3.545-5.165 9.837-10.362 38.608-31.89 72.249-69.075 99.505-109.987 39.395-59.132 61.435-117.676 69.804-185.417 2.157-17.454 3.017-67.153 1.476-85.239-2.308-27.09-7.926-53.344-16.62-77.668l-3.423-9.577 3.362-6.508c1.849-3.58 4.629-9.883 6.177-14.008 1.549-4.125 3.127-7.871 3.508-8.323.381-.453 1.805 1.122 3.164 3.5 2.286 4 17.552 30.394 30.553 52.823 3.029 5.225 8.076 14 11.216 19.5 3.14 5.5 10.278 17.869 15.861 27.486 5.584 9.617 10.152 18.055 10.152 18.75 0 .764-1.308 1.264-3.304 1.264-12.994 0-30.521 20.813-35.113 41.697-3.151 14.328-1.335 30.226 4.368 38.234 7.85 11.024 25.727 8.861 38.032-4.603 5.946-6.506 13.239-20.806 15.467-30.328 1.905-8.145 1.983-21.242.163-27.292-.764-2.536-4.176-9.02-7.583-14.409-3.408-5.39-9.213-15.199-12.902-21.799-17.646-31.578-22.651-40.489-26.122-46.5-3.433-5.947-15.198-26.802-33.284-59-17.886-31.842-26.433-47-32.705-58a816.264 816.264 0 0 1-7.064-12.698l-3.357-6.198-3.209 9.805c-1.764 5.393-5.49 14.645-8.28 20.56l-5.073 10.754-4.201-5.362c-7.17-9.15-24.886-26.204-34.833-33.531-12.74-9.385-27.975-18.134-43.056-24.727-12.812-5.601-36.575-13.423-47.811-15.739-6.936-1.43-7.717-2.198-6.225-6.123l.99-2.604 5.655 3.063c13.958 7.56 40.309 3.087 63.548-10.787 11.33-6.764 26.599-21.748 30.871-30.295 8.432-16.87 4.304-30.366-10.615-34.703-7.487-2.176-23.749-1.446-34.167 1.534-18.298 5.235-38.108 18.198-49.6 32.458-5.97 7.407-9.016 13.843-10.93 23.093-.797 3.85-2.44 10.26-3.651 14.245-1.956 6.44-2.44 7.191-4.355 6.76-5.571-1.255-20.577-2.633-34.654-3.181-46.141-1.797-100.681 11.205-140.5 33.494-10.371 5.806-29.587 18.242-35.25 22.814l-3.25 2.624v-2.765c0-2.004 1.858-4.836 6.75-10.288 22.268-24.819 33.464-39.794 47.253-63.203 20.465-34.743 34.974-78.062 40.191-120 2.028-16.304 1.686-60.557-.583-75.5-3.458-22.77-9.336-42.372-19.103-63.706-8.239-18-16.046-30.184-25.939-40.488C314.758.129 311.398-1.348 305.5 1.361m-9.806 71.684c-3.992 4.663-12.451 25.049-15.658 37.732-11.443 45.262-12.802 78.169-8.342 201.973.341 9.487.996 17.25 1.455 17.25.459 0 3.32-4.955 6.357-11.012 27.102-54.039 41.169-108.955 43.181-168.563.673-19.954-.798-34.593-5.25-52.229C313.482 82.53 305.634 69 300.501 69c-.74 0-2.903 1.82-4.807 4.045m125.284 260.95c-32.016 2.906-73.27 14.81-101.478 29.283-18.96 9.728-44.5 26.506-44.5 29.234 0 .825 3.104-.441 8.25-3.365 42.529-24.165 103.056-36.823 149.25-31.214 12.643 1.535 33.111 5.493 41.246 7.975l6.246 1.906 2.451-8.157c3.963-13.188 5.998-21.55 5.392-22.155-2.616-2.617-49.545-5.078-66.857-3.507m75.49 8.428c-.763 1.826-2.798 8.401-4.522 14.611-1.723 6.21-3.34 11.83-3.594 12.49-.275.718 1.872 2.127 5.344 3.506 37.221 14.788 69.213 41.493 91.013 75.97 3.303 5.225 7.008 11.469 8.233 13.875l2.227 4.376 4.507-4.376c6.185-6.004 19.352-22.434 26.071-32.531 6.606-9.926 6.751-9.14-3.941-21.344-21.495-24.533-46.13-41.925-78.471-55.397-14.511-6.045-18.221-7.295-34.157-11.508l-11.322-2.993-1.388 3.321M393 363.618c-38.117 2.51-81.241 14.819-110.75 31.613-3.988 2.269-7.25 4.72-7.25 5.447 0 1.805 1.414 1.662 5.825-.589 2.06-1.051 8.403-3.532 14.094-5.513 42.575-14.819 92.332-16.372 128.795-4.02 10.542 3.571 26.584 11.246 35.323 16.899 3.954 2.558 7.454 4.387 7.777 4.064C467.981 410.352 477 379.487 477 376.66c0-1.389-11.882-5.546-23.034-8.059-15.691-3.535-45.698-5.988-60.966-4.983m86.751 34.668l-5.576 19.287 11.705 12.055c37.562 38.685 55.204 90.642 51.208 150.818-1.76 26.519-5.174 44.705-12.775 68.054-5.433 16.691-18.4 43.283-29.692 60.892-2.935 4.577-3.482 6.08-2.45 6.731 4.548 2.87 21.557 8.59 35.58 11.967 17.204 4.142 26.276 7.338 32.474 11.44 2.052 1.358 4.098 2.47 4.546 2.47 3.114 0 25.417-46.555 31.378-65.5 3.833-12.181 9.795-37.311 11.301-47.628 2.538-17.399 2.474-17.786-5.267-31.923-14.873-27.164-44.446-80.801-48.306-87.613l-2.926-5.165 8.775-6.285c8.682-6.22 24.744-19.338 26.99-22.043 2.848-3.433-16.204-33.176-32.843-51.275-8.072-8.779-21.804-20.24-33.302-27.793C511.525 390.832 488.905 379 486.59 379c-.779 0-3.394 7.375-6.839 19.286M342.5 389.641c-19.297 2.035-48.058 9.241-61.203 15.334l-6.203 2.876.487 15.825c.268 8.703.737 19.536 1.043 24.074l.556 8.25h5.362c2.949 0 11.571.902 19.16 2.004 45.281 6.575 83.431 24.586 109.127 51.52 23.673 24.812 39.168 55.073 44.792 87.476 2.525 14.544 2.507 44.5-.034 58.5-4.368 24.06-13.527 46.683-27.328 67.5-9.03 13.62-30.544 35.793-44.366 45.726-16.426 11.803-40.794 23.922-58.893 29.288-4.125 1.223-13.8 3.434-21.5 4.913l-14 2.69.347 12.941c.191 7.118.541 13.142.778 13.387.982 1.013 22.078-4.508 38.875-10.175 58.055-19.584 108.025-52.779 139.373-92.585l3.373-4.283-2.123-13.314c-1.168-7.322-2.123-13.784-2.123-14.358 0-.575 2.883 1.839 6.407 5.363 3.524 3.524 7.069 6.407 7.877 6.407 3.101 0 20.979-32.899 29.121-53.588 6.358-16.156 9.549-27.81 13.047-47.653 6.53-37.044 4.896-70.89-4.993-103.452-5.521-18.179-17.824-41.257-30.285-56.807-6.026-7.52-16.664-18.504-17.912-18.494-.419.003-2.169 5.066-3.888 11.25-3.054 10.983-6.851 23.858-15.996 54.244-2.483 8.25-4.711 15.697-4.95 16.549-.317 1.128-1.383 1.438-3.932 1.14-1.923-.224-3.496-.617-3.496-.872s2.293-8.418 5.096-18.14a4393.951 4393.951 0 0 0 9.533-33.645c2.44-8.782 5.772-20.239 7.404-25.46 1.632-5.221 2.967-9.986 2.967-10.589 0-1.556-10.905-9.326-21.544-15.352-11.081-6.276-29.743-13.289-43.029-16.17-8.066-1.75-13.956-2.208-31.427-2.447-11.825-.162-23.3-.104-25.5.127M241 411.339c-10.165 9.936-36.945 32.781-70.5 60.143-29.472 24.033-39.513 33.835-49.711 48.525-17.008 24.501-25.878 44.626-29.814 67.646-8.278 48.403 2.539 90.078 32.529 125.328 10.233 12.027 18.252 18.972 33.496 29.01 26.556 17.485 58.768 27.399 93.287 28.71l15.786.6-.586-11.9c-.323-6.546-1.464-38.226-2.536-70.401-2.181-65.402-3.502-100.457-4.956-131.5-.541-11.55-.986-25.351-.989-30.668-.003-5.318-.279-10.38-.613-11.25-1.517-3.954-29.247-.156-47.164 6.459-18.603 6.869-34.146 19.336-44.953 36.058-17.102 26.461-15.767 68.008 2.742 85.321 16.412 15.351 44.529 15.775 52.804.795 7.141-12.929.697-32.138-11.861-35.354-5.434-1.392-10.81-.555-14.36 2.238-3.347 2.633-3.298 3.9.149 3.905 6.419.008 12.25 6.457 12.25 13.545 0 9.257-6.442 14.677-15.987 13.453-12.245-1.571-17.16-15.213-10.27-28.502 8.457-16.31 31.519-18.369 45.8-4.088 14.211 14.211 11.575 40.244-5.386 53.195-8.711 6.651-25.894 9.443-38.766 6.298-27.528-6.725-48.033-32.337-52.471-65.54-1.571-11.758-.591-34.241 1.988-45.559 3.636-15.962 11.577-32.956 21.658-46.35 6.048-8.036 20.268-21.871 26.835-26.108 2.368-1.528 8.624-8.387 14.817-16.246 15.606-19.806 29.438-35.683 45.115-51.789 17.091-17.558 18.43-22.358 1.667-5.974m1.72 15.971c-12.723 9.533-29.351 25.131-40.749 38.223-5.011 5.757-8.858 10.467-8.548 10.467.311 0 4.996-1.992 10.413-4.426 5.417-2.435 13.407-5.59 17.756-7.011 8.1-2.647 26.572-6.563 30.959-6.563 2.388 0 2.449-.192 2.444-7.75-.006-11.306-1.202-30.25-1.91-30.25-.335 0-4.999 3.29-10.365 7.31m415.365 72.756c-8.248 11.025-22.052 25.738-33.784 36.008l-6.198 5.426.908 5c1.59 8.75 2.29 42.273 1.133 54.267l-1.087 11.267 5.615 10.233A8372.56 8372.56 0 0 1 636.001 643c11.899 21.868 17.921 32.687 21.338 38.333 5.838 9.645 7.26 22.635 4.048 36.97-2.929 13.071-12.335 29.62-20.071 35.315-13.266 9.765-26.698 9.145-33.491-1.546-4.612-7.258-6.11-13.914-5.618-24.959 1.133-25.418 18.54-51.419 35.972-53.731 2.652-.352 4.821-1.115 4.821-1.696s-2.43-5.361-5.401-10.621C626.864 642.054 619 627.53 619 626.714c0-.457-.424-.57-.942-.25-.518.321-1.241 2.71-1.607 5.309-1.958 13.934-7.108 34.867-12.482 50.737-6.075 17.937-19.185 46.48-27.874 60.685-2.252 3.683-4.095 7.086-4.095 7.563 0 .477 1.121 3.191 2.491 6.031 3.419 7.088 5.52 20.231 5.45 34.092-.047 9.393-.287 11.258-1.25 9.735-5.894-9.32-12.703-15.072-22.357-18.887l-4.167-1.646-10.466 13.209c-10.587 13.361-25.62 29.901-37.933 41.737l-6.731 6.471 5.442 37c7.484 50.881 8.462 56.841 9.494 57.873.877.877 6.803-3.422 21.027-15.254C593.477 870.81 644.478 794.023 667.576 718.5c12.649-41.357 18.133-82.886 17.1-129.5-.667-30.103-3.044-47.971-10.049-75.527-2.093-8.232-7.076-23.249-8.036-24.214-.132-.133-3.96 4.73-8.506 10.807M279.009 519.25c.015 11.042 5.049 146.785 6.962 187.75a3677.333 3677.333 0 0 1 1.632 40.776c.37 11.152 1.018 20.49 1.439 20.75 1.009.624 20.014-6.014 26.213-9.155 28.024-14.201 50.053-37.569 62.981-66.809 8.86-20.037 12.748-38.395 12.758-60.24.011-22.347-3.231-37.793-11.605-55.3-14.369-30.041-38.547-50.459-70.889-59.864-7.251-2.109-20.1-4.158-26.072-4.158H279l.009 6.25M601 554.096c-4.675 3.339-8.625 6.599-8.777 7.245-.247 1.05 14.024 28.191 17.421 33.132 1.163 1.691 1.339-.592 1.239-16-.064-9.885-.402-20.78-.75-24.21l-.633-6.237-8.5 6.07m-137.072 197.05c-37.639 44.405-90.567 76.532-155.423 94.343-9.347 2.567-17.144 4.816-17.326 4.999-.183.182.24 17.022.939 37.422 1.247 36.384 1.31 37.09 3.333 37.09 4.072 0 39.384-10.17 55.881-16.094 25.94-9.316 51.318-20.864 75.168-34.204 19.201-10.741 58.777-38.655 60.252-42.497.318-.831-.91-11.679-2.73-24.107a9058.368 9058.368 0 0 1-6.417-44.766c-1.709-12.192-3.364-22.425-3.678-22.738-.314-.314-4.813 4.435-9.999 10.552m18.555-6.896c.769 3.319 5.889 37.273 9.124 60.5 1.624 11.663 3.264 20.25 3.868 20.25 2.479 0 45.497-45.361 44.225-46.634-.122-.122-4.492-.947-9.711-1.834-5.219-.886-11.739-2.323-14.489-3.192-12.613-3.988-23.214-13.034-28.721-24.507-3.238-6.747-5.309-8.956-4.296-4.583M485 852.092c-1.925 1.655-9.125 7.396-16 12.757-44.499 34.698-99.088 62.007-157.976 79.03l-16.476 4.762-1.163 10.498c-1.579 14.243-4.526 24.36-10.465 35.921-5.133 9.993-14.698 22.26-21.241 27.241-2.023 1.54-3.679 3.144-3.679 3.564 0 2.689 48.88-3.663 80.5-10.46 25.584-5.499 65.488-18.34 85.618-27.551 6.049-2.768 6.721-3.386 7.828-7.191 1.919-6.603 10.746-21.854 17.625-30.451 13.809-17.26 33.944-28.821 46.5-26.7 3.667.62 3.929.504 3.929-1.742 0-1.324-1.8-14.976-4.001-30.338-5.519-38.54-6.151-42.438-6.87-42.391-.346.022-2.204 1.395-4.129 3.051" fill="undefined" fill-rule="evenodd"/></svg>