<svg xmlns="http://www.w3.org/2000/svg" width="1240" height="1240"><path d="M573.946 14.876c-6.527 4.221-15.184 13.881-26.192 29.226C537.322 58.644 527.857 76.388 522.738 91c-6.551 18.696-7.601 22.141-9.648 31.633-1.17 5.427-2.571 11.255-3.114 12.952-3.187 9.969-8.384 58.91-9.441 88.915-.768 21.821 1.568 74.831 4.452 101 .546 4.95 1.687 16.425 2.536 25.5.85 9.075 1.968 18.75 2.485 21.5.517 2.75 1.909 13.236 3.092 23.302l2.152 18.301-2.376 2.572c-2.923 3.164-20.309 18.839-24.968 22.511-1.874 1.478-7.008 5.392-11.408 8.699a3887.7 3887.7 0 0 0-10.5 7.913c-1.375 1.046-7.675 5.45-14 9.787-6.325 4.337-14.65 10.059-18.5 12.715-3.85 2.656-10.6 7.3-15 10.318-8.255 5.664-13.168 9.132-17.5 12.353-16.542 12.299-25.035 18.72-27.647 20.901-1.73 1.445-5.305 4.428-7.944 6.628-28.202 23.514-56.662 55.316-73.557 82.196-7.016 11.163-19.93 37.552-24.367 49.792-8.021 22.128-10.016 35.757-9.197 62.825.685 22.639 2.705 35.671 7.927 51.131 9.315 27.584 22.62 49.721 42.334 70.437 10.174 10.691 27.188 25.166 35.99 30.619 1.776 1.1 5.113 3.263 7.415 4.807 14.145 9.484 49.502 25.216 68.243 30.365a7724.487 7724.487 0 0 0 16.245 4.444c18.718 5.093 53.628 8.996 78.558 8.784l18.5-.157.694 12.878c.381 7.084 1.176 27.504 1.767 45.379.591 17.875 1.552 43.525 2.136 57 .584 13.475.879 33.95.655 45.5-.407 20.957-.415 21.021-3.919 31.106-8.515 24.505-25.14 41.789-50.987 53.009-13.522 5.869-24.06 7.788-38.846 7.072-6.325-.307-13.974-1.312-16.998-2.235-25.574-7.801-48.153-33.269-52.127-58.793-1.216-7.813-.691-23.679.916-27.659.952-2.359 1.049-2.388 1.724-.5 6.299 17.602 15.815 26.281 33.945 30.961 15.868 4.096 35.203-1.262 47.175-13.073 8.959-8.838 13.335-20.288 13.335-34.888 0-20.584-10.189-37.319-28.147-46.228-10.817-5.366-14.461-6.265-25.323-6.242-11.417.024-15.443.979-26.802 6.361-31.273 14.817-49.056 55.876-40.655 93.87 3.554 16.075 10.287 32.013 17.457 41.325 14.73 19.131 31.756 30.553 53 35.554 17.322 4.077 57.259 3.812 112.5-.749 25.821-2.131 67.543-8.977 87.35-14.332 4.317-1.167 12.867-3.466 19-5.109 6.132-1.643 12.05-3.396 13.15-3.896 1.1-.5 7.175-2.576 13.5-4.615s11.95-4.037 12.5-4.44c.55-.403 4.15-1.759 8-3.014 3.85-1.254 10.6-3.976 15-6.048 11.745-5.531 12.498-5.667 12.51-2.254.015 4.39 4.319 12.568 8.153 15.492 12.557 9.578 33.265 4.003 53.627-14.438 14.902-13.495 29.867-38.811 33.259-56.263.746-3.836 1.827-7.29 2.403-7.676 14.29-9.569 58.012-51.188 77.696-73.96 11.892-13.757 25.395-30.603 28.69-35.792.889-1.4 1.893-2.771 2.232-3.046 1.305-1.06 18.633-26.648 23.701-35 11.849-19.527 27.893-50.015 33.721-64.08 1.463-3.531 3.526-8.25 4.584-10.486 1.058-2.236 1.924-4.383 1.924-4.771 0-.388 1.643-4.859 3.651-9.935 6.279-15.873 14.716-45.638 18.354-64.754a4286.757 4286.757 0 0 1 3.066-15.974c4.597-23.433 7.513-73.281 6.034-103.143-.858-17.342-5.272-55.7-6.669-57.961-.245-.395-1.806-6.721-3.47-14.057-1.664-7.337-4.325-16.939-5.912-21.339-1.588-4.4-3.886-11.176-5.106-15.058l-2.218-7.057 4.814-9.943c2.647-5.468 5.784-12.578 6.972-15.8l2.159-5.858 2.351 3.858a262.366 262.366 0 0 1 4.255 7.276c2.846 5.112 12.428 21.509 17.87 30.582 2.639 4.4 6.625 11.375 8.857 15.5 2.232 4.125 6.738 12 10.013 17.5 3.275 5.5 7.111 12.025 8.525 14.5 1.414 2.475 4.682 8.155 7.263 12.622 2.58 4.468 6.865 11.893 9.522 16.5 2.656 4.608 5.911 10.178 7.233 12.378 3.116 5.187 3.053 6.495-.314 6.522-6.139.049-17.905 7.744-25.196 16.478-5.267 6.31-12.645 21.582-15.14 31.337-2.317 9.058-2.529 24.265-.447 32.087 1.361 5.113 6.077 12.997 9.493 15.871.847.713 3.565 2.215 6.04 3.339 14.088 6.396 33.336-5.522 44.725-27.693 6.548-12.748 8.275-20.225 8.275-35.822 0-14.054-1.571-20.919-5.923-25.883-1.56-1.78-3.727-4.811-4.816-6.736-1.089-1.925-4.588-8-7.775-13.5-3.188-5.5-7.007-12.25-8.487-15-1.48-2.75-4.61-8.375-6.957-12.5a2928.214 2928.214 0 0 1-9.296-16.5c-2.766-4.95-6.916-12.375-9.223-16.5a1887.876 1887.876 0 0 0-9.667-17c-9.358-16.242-15.541-27.318-17.865-32-1.228-2.475-2.741-5.108-3.362-5.852-.621-.743-2.929-4.666-5.129-8.717-2.2-4.05-6.884-12.442-10.408-18.648A3455.297 3455.297 0 0 1 1000.395 482c-2.908-5.225-6.096-10.85-7.083-12.5-2.476-4.14-9.609-16.868-13.169-23.5-5.89-10.973-10.091-17.299-10.557-15.899-.255.77-2.307 7.024-4.558 13.899-2.252 6.875-6.185 16.702-8.741 21.837-4.427 8.897-4.721 9.245-6.217 7.371-7.569-9.484-20.814-23.472-29.652-31.317-25.265-22.426-65.169-42.345-105.872-52.849-8.775-2.264-16.16-4.323-16.412-4.575-.253-.252.031-1.533.629-2.847l1.088-2.388 4.825 2.379c15.201 7.496 39.333 4.945 62.756-6.633 14.238-7.037 19.17-10.413 30.568-20.921 14.022-12.929 22.069-28.983 20.328-40.557-.808-5.365-1.826-7.236-6.695-12.296-6.252-6.498-14.226-8.64-29.499-7.923-18.107.849-35.016 6.774-52.449 18.379-18.19 12.11-30.326 25.927-34.555 39.34-2.727 8.65-8.137 29.157-8.133 30.829.002.92-.845 1.157-2.747.77-14.88-3.029-51.617-4.383-72.662-2.678-8.202.664-20.802 2.276-28 3.581-13.288 2.41-43.426 9.814-46.438 11.408-.908.481-5.475 2.222-10.15 3.871-4.675 1.649-10.975 4.052-14 5.34-7.344 3.128-32.527 15.922-37.318 18.959-9.632 6.106-20.623 13.522-25.274 17.053-2.801 2.127-5.389 3.867-5.75 3.867-1.968 0-.043-3.697 4.592-8.823 4.929-5.45 13.132-14.937 22.192-25.666 15.351-18.176 32.336-44.318 44.84-69.011 3.278-6.474 12.292-27.267 13.222-30.5.395-1.375 1.327-3.85 2.071-5.5 2.274-5.041 11.123-35.505 12.782-44 3.329-17.052 5.728-32.08 7.146-44.775 1.872-16.757 1.9-45.659.059-61.27-1.671-14.171-6.878-43.026-8.924-49.455-8.307-26.105-19.711-50.878-31.302-68-6.056-8.946-17.486-21.509-21.42-23.544-4.654-2.406-10.915-1.85-15.97 1.42m-6.26 79.374c-7.461 10.037-16.818 35.188-21.114 56.75-.931 4.675-2.093 10.075-2.582 12-1.301 5.124-3.818 29.125-4.979 47.483-1.257 19.869-1.284 66.122-.058 98.517.51 13.475 1.236 35.404 1.614 48.731.377 13.327 1.065 23.997 1.527 23.711.961-.594 17.906-34.602 17.906-35.936 0-.481.908-2.751 2.019-5.044 2.476-5.116 9.475-23.814 11.963-31.962 13.483-44.154 18.717-72.021 21.661-115.326 1.622-23.851 1.624-26.185.029-40.104-2.766-24.14-8.517-44.608-15.418-54.867-5.487-8.158-8.693-9.167-12.568-3.953M706 389.659c-8.956 1.14-32.709 5.592-44 8.248-11.558 2.719-42.202 12.392-44.5 14.046-.55.396-3.7 1.774-7 3.062-7.942 3.101-24.43 11.352-32.258 16.143-3.452 2.113-6.482 3.842-6.733 3.842-.774 0-20.831 13.858-24.009 16.588-2.432 2.09-1.674 1.859 4-1.218 20.783-11.272 43.765-20.735 60.273-24.817 5.35-1.323 13.327-3.363 17.727-4.533 16.982-4.515 32.469-6.204 60-6.541 33.895-.417 51.668 1.65 74.432 8.655 5.187 1.596 9.733 2.557 10.101 2.134.368-.422 1.433-3.693 2.367-7.268.933-3.575 2.872-10.441 4.308-15.257 1.436-4.816 2.427-8.936 2.202-9.155-.226-.218-5.36-1.18-11.41-2.136-10.64-1.681-56.504-2.937-65.5-1.793m88.587 7.566c-.202.701-2.204 7.125-4.448 14.275-6.239 19.882-6.517 17.552 2.554 21.405 33.978 14.431 59.26 32.909 84.367 61.663 5.493 6.291 16.862 23.353 23.488 35.252l4.633 8.32 5.387-5.952c4.806-5.311 12.022-13.913 20.29-24.188 2.915-3.622 7.282-10.043 10.484-15.411 1.013-1.699 2.231-3.497 2.706-3.996 1.033-1.083-1.386-4.743-8.976-13.582-13.796-16.068-32.114-32.294-45.854-40.619-2.905-1.76-5.83-3.645-6.5-4.188-.67-.544-4.368-2.651-8.218-4.683-3.85-2.032-7.45-4.061-8-4.509-4.591-3.738-46.88-19.594-60-22.498-3.85-.852-8.022-1.777-9.272-2.056-1.355-.302-2.421.007-2.641.767M660 424.414c-13.719 1.571-13.226 1.473-38.5 7.643-16.648 4.063-37.07 10.687-46 14.919-22.571 10.697-30.11 14.583-30.96 15.959-1.192 1.929 1.823 1.084 12.46-3.488 26.515-11.398 67.207-18.349 100.417-17.153 18.492.667 32.709 3.014 50.083 8.271 13.172 3.986 34.128 13.747 44.887 20.909 3.789 2.521 7.012 4.459 7.164 4.305.152-.153 1.19-3.654 2.305-7.779 1.115-4.125 3.624-12.867 5.575-19.427 1.951-6.56 3.334-12.142 3.072-12.403-.462-.462-10.781-3.459-25.003-7.26-13.152-3.516-27.415-5.034-51-5.429-15.02-.251-26.99.073-34.5.933m117.113 30.774a9794.706 9794.706 0 0 0-6.28 21.194l-2.024 6.881 7.846 7.27c7.094 6.574 10.692 10.582 21.815 24.302 11.693 14.424 27.242 45.336 32.527 64.665 1.203 4.4 2.808 10.025 3.567 12.5 6.028 19.672 7.713 65.843 3.538 97-1.216 9.075-2.609 18.075-3.095 20-.487 1.925-2.029 8.357-3.427 14.293-2.45 10.409-3.764 14.503-10.447 32.552-3.538 9.553-18.096 38.975-23.334 47.155-1.936 3.025-3.82 6.453-4.185 7.618-.366 1.165-1.554 2.922-2.64 3.905-1.085.983-1.974 2.397-1.974 3.143 0 2.852 15.95 8.911 37.5 14.247 20.285 5.022 32.517 9.148 37.804 12.752 2.287 1.559 4.661 3.157 5.277 3.55.657.421 1.696-.404 2.518-2 .771-1.493 2.918-5.415 4.773-8.715 21.5-38.256 35.238-78.418 41.218-120.5l2.203-15.5-3.174-6c-3.241-6.126-3.988-7.489-15.089-27.5a8760.846 8760.846 0 0 1-14.343-26 8290.813 8290.813 0 0 0-12.68-23c-14.322-25.817-20.878-38.4-20.405-39.164.292-.473 2.863-2.429 5.714-4.348 9.9-6.663 16.235-11.521 25.483-19.541 10.725-9.302 10.52-7.788 2.902-21.447-9.278-16.636-21.951-33.513-34.95-46.544-6.721-6.738-10.047-9.635-24.649-21.478-2.419-1.962-6.469-4.772-9-6.244-2.531-1.472-6.052-3.651-7.825-4.842-4.42-2.97-25.187-13.161-28.342-13.908-2.527-.599-2.629-.395-6.822 13.704M627 451.623c-22.657 2.115-53.186 8.89-69.486 15.42l-12.014 4.814.18 26.168c.099 14.393.427 26.416.729 26.717.302.302 6.071.887 12.82 1.301 29.543 1.809 69.751 13.264 92.771 26.43 1.375.786 4.3 2.41 6.5 3.609 16.444 8.963 36.04 25.521 49.608 41.918 5.272 6.371 15.848 21.9 18.389 27 .959 1.925 2.293 4.175 2.963 5 .671.825 2.265 4.2 3.543 7.5s2.661 6.45 3.072 7c3.388 4.529 11.326 34.136 12.967 48.364 1.524 13.211.683 50.819-1.357 60.636-2.898 13.952-6.614 27.155-9.71 34.5a1348.274 1348.274 0 0 0-4.991 12c-3.805 9.351-15.272 28.025-24.101 39.245-13.112 16.664-35.601 37.508-48.383 44.842-2.2 1.263-5.248 3.314-6.774 4.56-1.526 1.245-10.526 6.068-20 10.716-23.659 11.608-45.292 18.288-68.626 21.194l-5.401.672.639 14.041c.351 7.722.839 14.24 1.083 14.484 1.398 1.398 39.917-9.711 57.079-16.462 4.95-1.947 11.7-4.547 15-5.778 7.788-2.905 35.568-17.055 46.667-23.77 21.63-13.087 38.686-26.091 56.878-43.366 6.3-5.983 12.067-11.7 12.815-12.704.748-1.005 4.029-4.83 7.29-8.5 3.262-3.671 6.179-7.659 6.483-8.863.474-1.874-1.227-18.482-3.256-31.811l-.609-4 8.655 8.805 8.656 8.805 3.302-4.805c6.997-10.182 20.149-34.754 24.784-46.305 1.655-4.125 3.368-7.95 3.807-8.5.966-1.212 9.386-27.63 11.474-36 1.692-6.78 5.07-27.512 6.681-41 .649-5.432.862-18.513.538-33-.501-22.355-.771-25.097-3.933-40-1.867-8.8-5.443-21.625-7.947-28.5-4.309-11.831-12.888-30.259-16.72-35.914A454.163 454.163 0 0 1 794.42 531c-7.157-11.13-28.096-34.874-29.366-33.3-.964 1.194-2.979 7.438-6.041 18.715-1.506 5.547-5.093 17.96-7.97 27.585-2.878 9.625-6.53 22-8.117 27.5-1.586 5.5-3.516 12.025-4.287 14.5l-1.403 4.5-4.704-.169c-2.587-.093-4.956-.422-5.265-.731-.309-.308.872-4.993 2.623-10.411 1.751-5.417 4.463-14.539 6.026-20.269 1.563-5.731 4.75-16.945 7.081-24.92a1756.73 1756.73 0 0 0 8.107-28.824c2.128-7.878 4.096-14.69 4.372-15.137.277-.448-1.855-2.573-4.736-4.722-20.788-15.503-45.306-25.955-73.74-31.435-9.36-1.803-40.03-3.189-50-2.259m-120.067 23.719c-5.812 5.587-13.444 12.633-16.959 15.658a1732.23 1732.23 0 0 0-11.508 10c-7.996 7.032-10.252 8.911-21.466 17.873-5.775 4.616-12.095 9.795-14.043 11.51-1.949 1.714-7.734 6.492-12.854 10.617-29.428 23.705-49.444 42.56-57.437 54.104-24.395 35.235-33.015 55.975-37.723 90.755-2.418 17.872-2.424 29.125-.023 45.141 3.136 20.912 8.567 38.474 16.237 52.5l5.312 9.716c10.248 18.753 36.383 44.84 57.531 57.427 17.492 10.411 42.209 20.712 57.5 23.963 14.634 3.112 33.501 5.581 46.75 6.117l13.75.557-.009-7.39c-.012-8.923-4.724-127.081-5.519-138.39-.448-6.362-4.472-133.076-4.472-140.806 0-1.909-.458-1.96-11.615-1.293-20.185 1.207-35.615 5.154-51.825 13.259-20.587 10.293-33.768 23.359-43.85 43.464-7.049 14.058-8.142 19.341-8.146 39.376-.005 20.221 1.481 27.627 7.562 37.701 5.274 8.738 11.358 14.229 20.391 18.402 14.6 6.746 25.857 7.109 36.679 1.185 7.027-3.848 10.018-7.945 11.782-16.14 2.258-10.487-2.709-23.899-10.876-29.371-4.537-3.04-14.099-3.186-18.852-.288-4.257 2.596-4.1 3.619.673 4.383 12.037 1.925 16.939 17.24 8.505 26.576-4.873 5.394-10.591 6.879-17.654 4.585-6.264-2.036-8.291-3.69-11.061-9.033-2.852-5.502-2.723-15.231.291-21.891 6.889-15.219 22.287-21.16 40.37-15.575 8.238 2.544 17.278 10.404 20.451 17.782 4.589 10.667 4.77 24.57.462 35.48-3.57 9.04-13.727 18.733-24.037 22.937-2.337.953-7.512 2.126-11.5 2.605-33.058 3.976-66.249-19.907-77.601-55.838-5.449-17.249-5.629-18.532-5.603-40 .027-21.872-.364-19.256 6.426-43 2.254-7.879 9.75-23.917 15.269-32.666 8.977-14.23 24.303-30.102 37.391-38.722 3.466-2.283 11.501-11.797 25.368-30.036 2.227-2.93 5.845-7.228 15.558-18.485 9.526-11.04 15.127-17.055 27.757-29.81 7.744-7.821 13.878-14.417 13.632-14.658-.246-.241-5.202 4.133-11.014 9.719m2.996 17.434c-11.995 9.068-22.737 18.283-32.064 27.506-10.203 10.089-24.109 25.807-23.432 26.485.262.262 2.409-.642 4.772-2.008 2.362-1.366 6.995-3.458 10.295-4.647 3.3-1.19 6.9-2.592 8-3.117 3.92-1.869 19.786-5.994 31.643-8.226l12.048-2.269-.553-4.5c-.304-2.475-.86-11.363-1.235-19.75-.375-8.387-.957-15.238-1.293-15.224-.335.014-4.017 2.602-8.181 5.75m471.878 76.767c-1.819 2.62-6.126 8.181-9.571 12.36-3.446 4.178-7.936 9.622-9.979 12.097-3.315 4.016-17.356 17.392-26.769 25.5l-3.482 3 1.057 9.5c.597 5.361.925 23.223.754 41l-.305 31.5 2.894 5c1.591 2.75 6.802 12.2 11.578 21 15.275 28.139 25.125 45.853 28.573 51.383 4.544 7.288 5.805 14.149 5.169 28.117-.628 13.801-2.93 21.965-9.54 33.838-9.105 16.353-22.998 27.213-35.187 27.504-4.437.106-6.567-.464-11-2.943-5.004-2.798-5.904-3.864-9.999-11.848l-4.5-8.774.117-12.638c.12-13.046 1.401-18.791 7.161-32.139 6.957-16.12 20.996-29.616 33.397-32.106l5.537-1.112-4.346-8.141c-5.846-10.95-10.532-19.583-12.359-22.769-.829-1.445-2.996-5.495-4.816-9-5.23-10.072-5.625-10.136-7.086-1.142-2.615 16.103-9.8 44.078-14.581 56.77a7653.83 7653.83 0 0 0-5.439 14.5c-3.257 8.721-18.23 39.46-21.735 44.626-1.317 1.941-3.559 5.826-4.982 8.634l-2.587 5.106 2.599 7.567c4.706 13.703 5.806 20.581 5.819 36.411.007 8.164-.41 15.267-.926 15.783-.586.586-1.649-.635-2.825-3.243-3.948-8.755-16.967-19.155-25.676-20.513-3.095-.482-3.567-.113-8.723 6.81-2.997 4.025-6.147 8.052-7 8.948-.852.895-4.473 5.17-8.046 9.5-3.573 4.329-14.05 15.521-23.282 24.871l-16.785 17 .629 6c.346 3.3 1.294 9.825 2.106 14.5 2.268 13.058 5.04 31.224 7.826 51.278 3.241 23.332 4.97 33.522 5.835 34.387.379.379 1.922-.428 3.428-1.794 1.507-1.366 5.215-4.363 8.24-6.659 10.211-7.751 12.476-9.633 21.5-17.859 21.042-19.182 37.725-36.614 50.676-52.954 11.386-14.364 13.497-17.092 16.324-21.097 7.076-10.026 24.504-36.494 29.34-44.563 6.965-11.617 22.16-40.613 22.16-42.284 0-.389 1.346-3.357 2.992-6.595 12.471-24.541 28.622-77.88 32.508-107.36.87-6.6 2.238-16.275 3.039-21.5 4.495-29.319 4.502-87.109.014-112.5-.778-4.4-2.159-12.725-3.069-18.5-.91-5.775-2.468-13.425-3.462-17-3.011-10.827-9.216-31.476-9.573-31.86-.185-.198-1.823 1.784-3.642 4.403m-433.265 36.564c.285 7.916.966 23.843 1.513 35.393.548 11.55 1.423 32.925 1.945 47.5.523 14.575 1.423 36.175 2.002 48 .579 11.825 1.89 48.187 2.913 80.805 1.024 32.618 2.06 59.503 2.302 59.745 1.065 1.065 17.02-4.088 26.493-8.557 9.588-4.523 22.028-12.004 26.79-16.112 13.732-11.846 19.069-17.277 28.624-29.126 3.994-4.954 13.114-20.359 17.133-28.941 4.903-10.469 11.358-30.683 13.405-41.974 2.303-12.707 2.333-42.814.055-55.362-3.12-17.182-12.628-39.575-23.346-54.978-4.502-6.471-16.682-19.037-24.07-24.832-7.946-6.232-24.215-14.988-34.781-18.717-10.452-3.689-19.936-5.609-32.343-6.545l-9.153-.691.518 14.392M913.5 636.712c-3.3 2.365-7.446 5.233-9.214 6.372l-3.213 2.071 2.398 3.799c1.319 2.089 3.718 6.442 5.331 9.673 8.514 17.048 12.065 22.88 12.788 20.998.879-2.29-.28-41.118-1.335-44.67l-.755-2.545-6 4.302M760.07 856.58c-14.919 17.91-40.702 41.948-58.435 54.481-25.354 17.92-62.106 36.994-85.873 44.567-2.894.923-5.712 2.02-6.262 2.439-.55.419-5.05 1.907-10 3.307-4.95 1.399-13.143 3.882-18.206 5.517-5.063 1.635-11.286 3.285-13.829 3.667-2.543.381-4.839 1.254-5.102 1.939-.263.685.012 10.641.61 22.124.599 11.484 1.369 29.541 1.71 40.129.493 15.299.901 19.25 1.986 19.25 8.756 0 61.812-16.049 81.493-24.651 4.214-1.842 8.021-3.349 8.461-3.349 3.054 0 49.09-22.952 63.207-31.513.918-.557 3.92-2.344 6.67-3.971 6.894-4.079 31.153-20.508 37.181-25.179C776.934 955.067 782 950.713 782 949.592c0-.673-.447-3.67-.993-6.658-.546-2.989-2.326-15.109-3.955-26.934-4.818-34.969-9.052-65.398-9.311-66.92-.132-.781-3.585 2.594-7.671 7.5m19.481 1.92c.348 2.75 1.019 6.575 1.491 8.5.473 1.925 2.035 12.725 3.471 24s3.519 25.675 4.629 32a4106.642 4106.642 0 0 1 2.57 14.75c.302 1.788.856 3.25 1.23 3.25 2.569 0 47.058-46.908 47.058-49.617 0-.619-2.362-1.433-5.25-1.81-11.851-1.544-27.788-6.302-33.032-9.861-9.88-6.704-12.408-9.489-20.624-22.712l-2.174-3.5.631 5m.385 116.209c-21.748 18.577-49.375 37.737-76.436 53.012-21.585 12.184-51.045 26.239-66.942 31.938-3.818 1.369-8.153 3.114-9.632 3.879-3.713 1.92-33.266 11.643-45.426 14.945-16.504 4.482-15.113 3.326-15.872 13.195-.755 9.824-1.678 14.12-5.87 27.322-5.492 17.295-13.641 30.329-27.104 43.353l-7.084 6.852 6.465-.617c43.406-4.143 43.228-4.12 68.488-9.129 17.301-3.431 21.222-4.333 38.977-8.961 30.861-8.044 79.5-26.4 79.5-30.002 0-.874 1.575-4.953 3.5-9.064 1.925-4.112 3.5-7.751 3.5-8.088 0-.336 2.913-4.939 6.472-10.228 11.385-16.915 24.061-28.484 39.364-35.929 8.565-4.167 9.981-4.548 17.148-4.607l7.811-.066-.38-3.007c-.947-7.478-3.736-26.293-5.929-40.007-1.32-8.25-2.934-19.725-3.587-25.5-.652-5.775-1.487-11.081-1.855-11.791-.482-.929-1.913-.229-5.108 2.5" fill="undefined" fill-rule="evenodd"/></svg>